<svg xmlns="http://www.w3.org/2000/svg" width="174.407" height="29.187" viewBox="0 0 174.407 29.187">
  <defs>
    <style>
      .cls-1 {
        fill: #3494c4;
        fill-rule: evenodd;
      }
    </style>
  </defs>
  <path id="eventm" class="cls-1" d="M902.992,808.712a2.02,2.02,0,0,0,1.476-.552,1.9,1.9,0,0,0,.564-1.416,11.176,11.176,0,0,0-.936-4.428,11.511,11.511,0,0,0-2.472-3.612,11.633,11.633,0,0,0-3.648-2.424,11.532,11.532,0,0,0-8.9.012,11.7,11.7,0,0,0-3.648,2.448,11.452,11.452,0,0,0-2.46,3.636,11.521,11.521,0,0,0,0,8.928,11.452,11.452,0,0,0,2.46,3.636,11.7,11.7,0,0,0,3.648,2.448,11.156,11.156,0,0,0,4.464.9,12.627,12.627,0,0,0,2.5-.228,11.365,11.365,0,0,0,2.064-.612,8.729,8.729,0,0,0,1.692-.912,9.867,9.867,0,0,0,1.332-1.1,2,2,0,0,0,.768-1.392,2.128,2.128,0,0,0-.36-1.368,3.015,3.015,0,0,0-.432-0.516,1.657,1.657,0,0,0-.552-0.348,2,2,0,0,0-1-.084,2.5,2.5,0,0,0-1.068.492,5.485,5.485,0,0,1-2.136,1.44,7.681,7.681,0,0,1-2.808.5,7.1,7.1,0,0,1-2.412-.408,6.937,6.937,0,0,1-3.576-2.844,6.358,6.358,0,0,1-.876-2.2h16.32Zm-16.44-3.456a6.776,6.776,0,0,1,.828-2.292,6.556,6.556,0,0,1,1.548-1.8,7.309,7.309,0,0,1,2.136-1.188,7.525,7.525,0,0,1,2.568-.432,7.645,7.645,0,0,1,2.544.42,7.263,7.263,0,0,1,2.148,1.176,7.015,7.015,0,0,1,1.6,1.8,6.366,6.366,0,0,1,.864,2.316H886.552Zm29.736-8.328a2.1,2.1,0,0,0-1.152-1.116,1.921,1.921,0,0,0-1.584.036,2.429,2.429,0,0,0-.672.492,1.985,1.985,0,0,0-.564,1.464,2.068,2.068,0,0,0,.2.828l8.424,18.072a2.407,2.407,0,0,0,.78.924,2.1,2.1,0,0,0,1.26.372,2.146,2.146,0,0,0,1.008-.348,2.117,2.117,0,0,0,.816-0.948l8.424-18.072a2.012,2.012,0,0,0,.048-1.608,2.053,2.053,0,0,0-1.1-1.152,1.951,1.951,0,0,0-1.6-.036,2.1,2.1,0,0,0-1.14,1.116l-6.576,14.424Zm45.84,11.784a2.02,2.02,0,0,0,1.476-.552,1.9,1.9,0,0,0,.564-1.416,11.176,11.176,0,0,0-.936-4.428,11.511,11.511,0,0,0-2.472-3.612,11.633,11.633,0,0,0-3.648-2.424,11.532,11.532,0,0,0-8.9.012,11.7,11.7,0,0,0-3.648,2.448,11.452,11.452,0,0,0-2.46,3.636,11.521,11.521,0,0,0,0,8.928,11.452,11.452,0,0,0,2.46,3.636,11.7,11.7,0,0,0,3.648,2.448,11.156,11.156,0,0,0,4.464.9,12.627,12.627,0,0,0,2.5-.228,11.365,11.365,0,0,0,2.064-.612,8.729,8.729,0,0,0,1.692-.912,9.867,9.867,0,0,0,1.332-1.1,2,2,0,0,0,.768-1.392,2.128,2.128,0,0,0-.36-1.368,3.015,3.015,0,0,0-.432-0.516,1.657,1.657,0,0,0-.552-0.348,2,2,0,0,0-1-.084,2.5,2.5,0,0,0-1.068.492,5.485,5.485,0,0,1-2.136,1.44,7.681,7.681,0,0,1-2.808.5,7.1,7.1,0,0,1-2.412-.408,6.937,6.937,0,0,1-3.576-2.844,6.358,6.358,0,0,1-.876-2.2h16.32Zm-16.44-3.456a6.776,6.776,0,0,1,.828-2.292,6.556,6.556,0,0,1,1.548-1.8,7.309,7.309,0,0,1,2.136-1.188,7.525,7.525,0,0,1,2.568-.432,7.645,7.645,0,0,1,2.544.42,7.263,7.263,0,0,1,2.148,1.176,7.015,7.015,0,0,1,1.6,1.8,6.366,6.366,0,0,1,.864,2.316H945.688Zm28.584,10.608a2.08,2.08,0,0,0,.612,1.512,2.046,2.046,0,0,0,1.524.624,1.871,1.871,0,0,0,1.452-.624,2.18,2.18,0,0,0,.564-1.512v-9.312a8.15,8.15,0,0,1,.636-2.64,7.7,7.7,0,0,1,1.44-2.244,6.9,6.9,0,0,1,2.1-1.548,5.855,5.855,0,0,1,2.568-.576,5.692,5.692,0,0,1,2.46.516,5.527,5.527,0,0,1,1.86,1.416,6.526,6.526,0,0,1,1.188,2.112,8.84,8.84,0,0,1,.468,2.58,1.728,1.728,0,0,0-.024.336v9.48a1.9,1.9,0,0,0,.624,1.464,2.117,2.117,0,0,0,1.488.576,2,2,0,0,0,1.452-.576,1.966,1.966,0,0,0,.588-1.464v-9.6a14.365,14.365,0,0,0-.624-4.284,10.357,10.357,0,0,0-1.836-3.492,8.739,8.739,0,0,0-2.988-2.352,9.163,9.163,0,0,0-4.056-.864,8.566,8.566,0,0,0-4.4,1.128,10.145,10.145,0,0,0-3.228,2.976l-0.192-1.776a4.394,4.394,0,0,0-.78-1.476,1.572,1.572,0,0,0-1.26-.588,1.393,1.393,0,0,0-1.26.564,2.63,2.63,0,0,0-.372,1.476v18.168Zm38.228-24.72a2.047,2.047,0,0,0-.57-1.464,1.932,1.932,0,0,0-1.44-.6,2.035,2.035,0,0,0-1.5.6,1.972,1.972,0,0,0-.62,1.464v4.488h-2.16a2.049,2.049,0,0,0-2.08,2.064,2.13,2.13,0,0,0,.15.8,2.028,2.028,0,0,0,.45.66,2.094,2.094,0,0,0,.67.456,1.992,1.992,0,0,0,.81.168h2.16v16.1a2.083,2.083,0,0,0,2.09,2.112,2.088,2.088,0,0,0,.81-0.156,1.919,1.919,0,0,0,.64-0.444,2.128,2.128,0,0,0,.44-0.672,2.289,2.289,0,0,0,.15-0.84v-16.1h3.07a2.05,2.05,0,0,0,2.09-2.088,1.992,1.992,0,0,0-.6-1.464,2.012,2.012,0,0,0-1.49-.6h-3.07v-4.488Zm14.14,24.72a2.107,2.107,0,0,0,2.13,2.136,1.879,1.879,0,0,0,1.46-.624,2.2,2.2,0,0,0,.56-1.512l0.02-12.024a4.642,4.642,0,0,1,.45-1.6,5.137,5.137,0,0,1,.95-1.38,4.4,4.4,0,0,1,1.33-.96,3.7,3.7,0,0,1,1.62-.36,4.3,4.3,0,0,1,1.63.312,4.621,4.621,0,0,1,1.36.852,4,4,0,0,1,.93,1.3,4.475,4.475,0,0,1,.4,1.644V815.96a1.814,1.814,0,0,0,.17.8,2.049,2.049,0,0,0,.45.648,2.142,2.142,0,0,0,.67.432,2.175,2.175,0,0,0,.82.156,1.984,1.984,0,0,0,1.44-.588,1.953,1.953,0,0,0,.6-1.452V804.3a4.546,4.546,0,0,1,.35-1.716,5.041,5.041,0,0,1,.96-1.524,5.178,5.178,0,0,1,1.41-1.092,3.675,3.675,0,0,1,1.72-.42,4.322,4.322,0,0,1,1.67.324,4.2,4.2,0,0,1,2.27,2.232,4.36,4.36,0,0,1,.33,1.716V815.96a1.964,1.964,0,0,0,.17.8,1.927,1.927,0,0,0,.46.648,2.034,2.034,0,0,0,.67.432,2.124,2.124,0,0,0,.81.156,1.945,1.945,0,0,0,1.43-.588,1.982,1.982,0,0,0,.59-1.452V803.672a10.307,10.307,0,0,0-.58-3.216,8,8,0,0,0-1.5-2.64,6.842,6.842,0,0,0-2.36-1.776,7.378,7.378,0,0,0-3.14-.648,8.442,8.442,0,0,0-3.87.912,8.842,8.842,0,0,0-3.02,2.472,7.975,7.975,0,0,0-2.57-2.448,6.814,6.814,0,0,0-3.58-.936,6.7,6.7,0,0,0-3.12.72,7.792,7.792,0,0,0-2.4,1.944l-0.02-.336a4.307,4.307,0,0,0-.78-1.476,1.575,1.575,0,0,0-1.26-.588,1.4,1.4,0,0,0-1.26.564,2.622,2.622,0,0,0-.37,1.476v18.168Z" transform="translate(-882.063 -789.094)"/>
</svg>
